# xmcd
#
# Track frame offsets: 
#        150
#        17403
#        38278
#        53817
#        69272
#        86034
#        103062
#        119335
#        133324
#
# Disc length: 2005 seconds
#
# Revision: 0
# Processed by: cddbd v1.5.2PL0 Copyright (c) Steve Scherf et al.
# Submitted via: ExactAudioCopyFreeDBPlugin 1.0
#
DISCID=6e07d309
DTITLE=Raven Cliff - A Different Kind of Yellow Rose
DYEAR=2017
DGENRE=Southern Rock
TTITLE0=Saltgrass
TTITLE1=Not Like This
TTITLE2=Jesus Lookin Back
TTITLE3=Don't Need Much
TTITLE4=Voodoo Whiskey
TTITLE5=Love the Sinner
TTITLE6=Naked
TTITLE7=Southern Poetry
TTITLE8=Beer Can
EXTD=
EXTT0=
EXTT1=
EXTT2=
EXTT3=
EXTT4=
EXTT5=
EXTT6=
EXTT7=
EXTT8=
PLAYORDER=
